<svg width="25" height="25" viewBox="0 0 25 25" fill="none" xmlns="http://www.w3.org/2000/svg">
<path fill-rule="evenodd" clip-rule="evenodd" d="M12.5 1.75C8.21983 1.75 4.75004 5.21979 4.75004 9.5V10.2041C4.75004 10.901 4.54375 11.5824 4.15717 12.1622L3.00856 13.8851C1.67547 15.8848 2.69318 18.6028 5.01177 19.2351C5.76738 19.4412 6.52937 19.6155 7.29578 19.7581L7.29768 19.7632C8.06667 21.8151 10.122 23.25 12.5 23.25C14.878 23.25 16.9333 21.8151 17.7023 19.7632L17.7042 19.7581C18.4706 19.6155 19.2327 19.4412 19.9883 19.2351C22.3069 18.6028 23.3246 15.8848 21.9915 13.8851L20.8429 12.1622C20.4563 11.5824 20.25 10.901 20.25 10.2041V9.5C20.25 5.21979 16.7802 1.75 12.5 1.75ZM15.8764 20.037C13.6335 20.305 11.3664 20.3049 9.12349 20.0369C9.83444 21.0585 11.071 21.75 12.5 21.75C13.9289 21.75 15.1655 21.0585 15.8764 20.037ZM6.25004 9.5C6.25004 6.04822 9.04826 3.25 12.5 3.25C15.9518 3.25 18.75 6.04822 18.75 9.5V10.2041C18.75 11.1972 19.044 12.168 19.5948 12.9943L20.7434 14.7172C21.5086 15.8649 20.9245 17.425 19.5936 17.788C14.9494 19.0546 10.0507 19.0546 5.40644 17.788C4.07561 17.425 3.49147 15.8649 4.25664 14.7172L5.40524 12.9943C5.95609 12.168 6.25004 11.1972 6.25004 10.2041V9.5Z" fill="#BABDC1"/>
</svg>
