<svg width="25" height="25" viewBox="0 0 25 25" fill="none" xmlns="http://www.w3.org/2000/svg">
<path fill-rule="evenodd" clip-rule="evenodd" d="M7.7626 3.76045C7.88219 2.63044 8.83828 1.75 10 1.75H15C16.1617 1.75 17.1178 2.63044 17.2374 3.76045C18.0005 3.77599 18.6603 3.81546 19.2236 3.91895C19.9816 4.05818 20.6267 4.32342 21.1517 4.84835C21.7536 5.45027 22.0125 6.20814 22.1335 7.10825C22.25 7.97522 22.25 9.07754 22.25 10.4451V16.5549C22.25 17.9225 22.25 19.0248 22.1335 19.8918C22.0125 20.7919 21.7536 21.5497 21.1517 22.1517C20.5497 22.7536 19.7919 23.0125 18.8918 23.1335C18.0248 23.25 16.9225 23.25 15.5549 23.25H9.44513C8.07754 23.25 6.97522 23.25 6.10825 23.1335C5.20814 23.0125 4.45027 22.7536 3.84835 22.1517C3.24643 21.5497 2.98754 20.7919 2.86652 19.8918C2.74996 19.0248 2.74998 17.9225 2.75 16.5549V10.4451C2.74998 9.07754 2.74996 7.97522 2.86652 7.10825C2.98754 6.20814 3.24643 5.45027 3.84835 4.84835C4.37328 4.32342 5.01835 4.05818 5.77635 3.91895C6.33973 3.81546 6.99952 3.77599 7.7626 3.76045ZM7.76496 5.26087C7.04678 5.2762 6.49336 5.31234 6.04735 5.39426C5.48054 5.49838 5.15246 5.66556 4.90901 5.90901C4.63225 6.18577 4.4518 6.57435 4.35315 7.30812C4.25159 8.06347 4.25 9.06458 4.25 10.5V16.5C4.25 17.9354 4.25159 18.9365 4.35315 19.6919C4.4518 20.4257 4.63225 20.8142 4.90901 21.091C5.18577 21.3678 5.57435 21.5482 6.30812 21.6469C7.06347 21.7484 8.06458 21.75 9.5 21.75H15.5C16.9354 21.75 17.9365 21.7484 18.6919 21.6469C19.4257 21.5482 19.8142 21.3678 20.091 21.091C20.3678 20.8142 20.5482 20.4257 20.6469 19.6919C20.7484 18.9365 20.75 17.9354 20.75 16.5V10.5C20.75 9.06458 20.7484 8.06347 20.6469 7.30812C20.5482 6.57434 20.3678 6.18577 20.091 5.90901C19.8475 5.66556 19.5195 5.49838 18.9527 5.39426C18.5066 5.31234 17.9532 5.2762 17.235 5.26087C17.1058 6.38062 16.1544 7.25 15 7.25H10C8.84559 7.25 7.89424 6.38062 7.76496 5.26087ZM10 3.25C9.58579 3.25 9.25 3.58579 9.25 4V5C9.25 5.41421 9.58579 5.75 10 5.75H15C15.4142 5.75 15.75 5.41421 15.75 5V4C15.75 3.58579 15.4142 3.25 15 3.25H10ZM6.75 11C6.75 10.5858 7.08579 10.25 7.5 10.25H8C8.41421 10.25 8.75 10.5858 8.75 11C8.75 11.4142 8.41421 11.75 8 11.75H7.5C7.08579 11.75 6.75 11.4142 6.75 11ZM10.25 11C10.25 10.5858 10.5858 10.25 11 10.25H17.5C17.9142 10.25 18.25 10.5858 18.25 11C18.25 11.4142 17.9142 11.75 17.5 11.75H11C10.5858 11.75 10.25 11.4142 10.25 11ZM6.75 14.5C6.75 14.0858 7.08579 13.75 7.5 13.75H8C8.41421 13.75 8.75 14.0858 8.75 14.5C8.75 14.9142 8.41421 15.25 8 15.25H7.5C7.08579 15.25 6.75 14.9142 6.75 14.5ZM10.25 14.5C10.25 14.0858 10.5858 13.75 11 13.75H17.5C17.9142 13.75 18.25 14.0858 18.25 14.5C18.25 14.9142 17.9142 15.25 17.5 15.25H11C10.5858 15.25 10.25 14.9142 10.25 14.5ZM6.75 18C6.75 17.5858 7.08579 17.25 7.5 17.25H8C8.41421 17.25 8.75 17.5858 8.75 18C8.75 18.4142 8.41421 18.75 8 18.75H7.5C7.08579 18.75 6.75 18.4142 6.75 18ZM10.25 18C10.25 17.5858 10.5858 17.25 11 17.25H17.5C17.9142 17.25 18.25 17.5858 18.25 18C18.25 18.4142 17.9142 18.75 17.5 18.75H11C10.5858 18.75 10.25 18.4142 10.25 18Z" fill="#FAB53C"/>
</svg>
