<svg width="26" height="27" viewBox="0 0 26 27" fill="none" xmlns="http://www.w3.org/2000/svg">
<path d="M16.25 12.4167C16.8483 12.4167 17.3334 11.9317 17.3334 11.3334C17.3334 10.7351 16.8483 10.2501 16.25 10.2501C15.6517 10.2501 15.1667 10.7351 15.1667 11.3334C15.1667 11.9317 15.6517 12.4167 16.25 12.4167Z" fill="#FFFFFF"/>
<path d="M10.8334 11.3334C10.8334 11.9317 10.3483 12.4167 9.75004 12.4167C9.15173 12.4167 8.66671 11.9317 8.66671 11.3334C8.66671 10.7351 9.15173 10.2501 9.75004 10.2501C10.3483 10.2501 10.8334 10.7351 10.8334 11.3334Z" fill="#FFFFFF"/>
<path fill-rule="evenodd" clip-rule="evenodd" d="M8.93754 6.21539V5.91675C8.93754 3.67309 10.7564 1.85425 13 1.85425C15.2437 1.85425 17.0625 3.67309 17.0625 5.91675V6.21539C17.7758 6.23747 18.411 6.27707 18.9746 6.34811C20.2759 6.51216 21.3293 6.8573 22.143 7.65203C22.4145 7.91719 22.6559 8.21157 22.8626 8.5298C23.4823 9.48359 23.6142 10.5842 23.5198 11.8925C23.4275 13.1728 23.106 14.7803 22.698 16.8203L22.6773 16.9238C22.3941 18.3397 22.1688 19.4664 21.89 20.3528C21.6028 21.2658 21.236 22.004 20.6225 22.6019C20.4115 22.8075 20.1832 22.9947 19.9402 23.1613C19.2335 23.6456 18.4378 23.8605 17.4862 23.963C16.5624 24.0626 15.4133 24.0626 13.9695 24.0626H12.0308C10.5869 24.0626 9.43784 24.0626 8.514 23.963C7.56245 23.8605 6.76669 23.6456 6.06004 23.1613C5.817 22.9947 5.58871 22.8075 5.3777 22.6019C4.76418 22.004 4.39744 21.2658 4.11026 20.3528C3.83144 19.4665 3.6061 18.3397 3.32294 16.9239L3.30228 16.8205C2.89425 14.7805 2.57272 13.1729 2.48037 11.8925C2.38602 10.5842 2.51787 9.48359 3.13758 8.5298C3.34434 8.21157 3.58568 7.91719 3.85718 7.65203C4.67091 6.8573 5.72429 6.51216 7.02565 6.34811C7.58917 6.27708 8.2243 6.23747 8.93754 6.21539ZM10.5625 5.91675C10.5625 4.57055 11.6538 3.47925 13 3.47925C14.3462 3.47925 15.4375 4.57055 15.4375 5.91675V6.18996C14.978 6.18757 14.4928 6.18758 13.981 6.18758H12.0192C11.5073 6.18758 11.0221 6.18757 10.5625 6.18996V5.91675ZM4.99257 8.81457C5.44155 8.37608 6.08454 8.10461 7.22889 7.96035C8.38903 7.81411 9.92587 7.81258 12.0777 7.81258H13.9225C16.0743 7.81258 17.6112 7.81411 18.7713 7.96035C19.9157 8.10461 20.5587 8.37608 21.0076 8.81457C21.1934 8.996 21.3585 9.19742 21.5 9.41515C21.8419 9.94141 21.982 10.6252 21.8991 11.7756C21.8149 12.9419 21.515 14.4492 21.093 16.5592C20.7986 18.0314 20.5893 19.0721 20.3398 19.8652C20.0957 20.6413 19.8362 21.0991 19.4883 21.4382C19.344 21.5789 19.1878 21.7069 19.0215 21.8209C18.6208 22.0956 18.121 22.2602 17.3121 22.3474C16.4854 22.4365 15.4239 22.4376 13.9225 22.4376H12.0777C10.5763 22.4376 9.51479 22.4365 8.68813 22.3474C7.8792 22.2602 7.37945 22.0956 6.97874 21.8209C6.81245 21.7069 6.65625 21.5789 6.51188 21.4382C6.16398 21.0991 5.90452 20.6413 5.66038 19.8652C5.41089 19.0721 5.20163 18.0314 4.90719 16.5592C4.48518 14.4492 4.18528 12.9419 4.10116 11.7756C4.01819 10.6252 4.15829 9.94141 4.50021 9.41515C4.64169 9.19742 4.80681 8.996 4.99257 8.81457Z" fill="#FFFFFF"/>
</svg>
